#N canvas 442 22 1320 929 10;
#X obj 107 77 hidin;
#X msg 19 51 open 1;
#X msg 16 146 1 34524;
#X msg 189 99 bang;
#X msg 73 49 start;
#X msg 116 49 stop;
#X msg 219 39 print;
#X msg 149 48 close;
#X msg 228 18 show;
#X msg 169 77 interval 100;
#X msg 263 141 interval 10;
#X obj 14 127 cyclone/prepend set;
#X obj 189 118 print -n;
#X obj 40 184 route 1 2 3 4 5 6 7 8 9 10 11 12 13 14 15 16;
#X text 87 167 need at least 16;
#X msg 268 127 interval 500;
#X text 39 198 1 2 3 4 5 6 7 8 9 10 11 12 1314 15 16 reject;
#X floatatom 109 224 5 0 0 2 five - -, f 5;
#X obj 95 319 hsl 200 15 -65408 -128 0 0 myroll empty roll_(sending_myroll)
10 -12 0 10 -203904 -1 -159808 19950 1;
#X obj 79 250 * -1;
#X floatatom 88 278 12 0 0 0 - - -, f 12;
#X floatatom 24 250 7 0 0 2 two - -, f 7;
#X floatatom 25 224 7 0 0 2 one - -, f 7;
#X floatatom 24 304 7 0 0 2 four - -, f 7;
#X floatatom 25 278 7 0 0 2 three - -, f 7;
#X floatatom 23 359 7 0 0 2 dpad(6) - -, f 7;
#X floatatom 24 333 7 0 0 2 five - -, f 7;
#X floatatom 23 413 7 0 0 2 redB(8) - red, f 7;
#X floatatom 24 387 7 0 0 2 greenA(7) - green, f 7;
#X floatatom 395 256 7 0 0 2 num - -, f 7;
#X floatatom 396 230 7 0 0 2 nine - -, f 7;
#X floatatom 395 310 7 0 0 2 rbump(12) - -, f 7;
#X floatatom 396 284 7 0 0 2 lbump(11) - -, f 7;
#X floatatom 395 365 7 0 0 2 start(14) - -, f 7;
#X floatatom 396 339 7 0 0 2 num - -, f 7;
#X floatatom 395 419 7 0 0 2 sixteen - -, f 7;
#X floatatom 396 393 7 0 0 2 fifteen - -, f 7;
#X text 70 356 0-8 up is 1 and then clockwise to 8 \, zero is no input
;
#X floatatom 341 184 10 0 0 1 reject - -, f 10;
#X obj 396 27 receive green;
#X obj 385 48 select 1;
#X obj 385 70 bng 8 250 50 0 empty empty empty 17 7 0 10 -262144 -1
-1;
#X obj 4 13 bng 15 250 50 0 empty empty start 17 7 0 10 -4034 -1 -1
;
#X obj 32 82 print;
#X obj 22 32 delay 100;
#X obj 115 9 bng 15 250 50 0 empty empty stop 18 5 0 10 -258113 -1
-1;
#X obj 122 28 delay 100;
#X obj 24 0 cnv 7 100 5 empty empty xboxroller 20 12 0 14 -233017 -66577
0;
#X obj 459 183 dac~;
#X msg 525 79 0.15;
#X msg 568 80 0;
#X obj 494 45 bng 8 250 50 0 empty empty empty 17 7 0 10 -262144 -1
-1;
#X obj 459 157 *~;
#X obj 544 44 bng 8 250 50 0 empty empty empty 17 7 0 10 -262144 -1
-1;
#X obj 503 26 receive red;
#X obj 490 215 receive myroll;
#X obj 493 235 + 65000;
#X floatatom 549 236 5 0 0 0 - - -, f 5;
#X obj 494 256 / 65;
#X obj 495 279 + 300;
#X floatatom 548 279 5 0 0 0 - - -, f 5;
#X obj 494 306 int;
#X floatatom 527 306 5 0 0 0 - - -, f 5;
#X obj 406 81 receive rollfrq;
#X obj 406 127 osc~;
#X obj 419 101 sig~;
#X obj 516 328 / 4800;
#X obj 456 396 send rollfrq;
#X obj 516 360 send ampAdjust;
#X floatatom 583 114 5 0 0 2 Adj ampAdjust -, f 5;
#X obj 515 192 send myvol;
#X obj 546 159 +;
#X floatatom 499 175 5 0 0 0 - - -, f 5;
#X obj 527 141 f;
#X obj 563 137 t b f;
#X floatatom 531 122 5 0 0 0 - - -, f 5;
#X connect 0 0 11 0;
#X connect 0 0 13 0;
#X connect 0 1 12 0;
#X connect 1 0 0 0;
#X connect 1 0 43 0;
#X connect 3 0 0 0;
#X connect 4 0 0 0;
#X connect 5 0 0 0;
#X connect 6 0 0 0;
#X connect 7 0 0 0;
#X connect 8 0 0 0;
#X connect 9 0 0 0;
#X connect 10 0 0 0;
#X connect 11 0 2 0;
#X connect 13 0 22 0;
#X connect 13 1 21 0;
#X connect 13 2 24 0;
#X connect 13 3 23 0;
#X connect 13 4 17 0;
#X connect 13 4 26 0;
#X connect 13 5 25 0;
#X connect 13 6 28 0;
#X connect 13 7 27 0;
#X connect 13 8 30 0;
#X connect 13 9 29 0;
#X connect 13 10 32 0;
#X connect 13 11 31 0;
#X connect 13 12 34 0;
#X connect 13 13 33 0;
#X connect 13 14 36 0;
#X connect 13 15 35 0;
#X connect 13 16 38 0;
#X connect 15 0 0 0;
#X connect 17 0 19 0;
#X connect 19 0 20 0;
#X connect 20 0 18 0;
#X connect 39 0 40 0;
#X connect 39 0 51 0;
#X connect 40 0 41 0;
#X connect 41 0 64 0;
#X connect 42 0 1 0;
#X connect 42 0 44 0;
#X connect 44 0 4 0;
#X connect 44 0 43 0;
#X connect 45 0 5 0;
#X connect 45 0 46 0;
#X connect 46 0 7 0;
#X connect 46 0 50 0;
#X connect 49 0 52 1;
#X connect 49 0 75 0;
#X connect 50 0 52 1;
#X connect 51 0 49 0;
#X connect 52 0 48 0;
#X connect 53 0 50 0;
#X connect 54 0 53 0;
#X connect 55 0 56 0;
#X connect 56 0 57 0;
#X connect 57 0 58 0;
#X connect 58 0 59 0;
#X connect 59 0 60 0;
#X connect 60 0 61 0;
#X connect 61 0 62 0;
#X connect 61 0 66 0;
#X connect 61 0 67 0;
#X connect 63 0 65 0;
#X connect 64 0 52 0;
#X connect 65 0 64 0;
#X connect 66 0 68 0;
#X connect 69 0 74 0;
#X connect 71 0 72 0;
#X connect 72 0 70 0;
#X connect 73 0 71 0;
#X connect 74 0 73 0;
#X connect 74 1 71 1;
#X connect 75 0 73 0;
