#N canvas 442 50 1320 929 10;
#X obj 40 53 hidin;
#X msg 108 35 open 1;
#X text 154 35 <-- assuming your device id is one;
#N canvas 0 50 1007 902 gamepadrouter 1;
#X obj 25 19 route 1 2 3 4 5 6 7 8 9 10 11 12 13 14 15 16;
#X text 24 33 1 2 3 4 5 6 7 8 9 10 11 12 1314 15 16 reject;
#X floatatom 9 85 7 0 0 2 two - -, f 7;
#X floatatom 10 59 7 0 0 2 one - -, f 7;
#X floatatom 9 139 7 0 0 2 four - -, f 7;
#X floatatom 10 113 7 0 0 2 three - -, f 7;
#X floatatom 8 194 7 0 0 2 dpad(6) - -, f 7;
#X floatatom 9 168 7 0 0 2 five - -, f 7;
#X floatatom 8 248 7 0 0 2 redB(8) - red, f 7;
#X floatatom 9 222 7 0 0 2 greenA(7) - green, f 7;
#X floatatom 380 91 7 0 0 2 yellowY(10) - yellow, f 7;
#X floatatom 381 65 7 0 0 2 blueX(9) - blue, f 7;
#X floatatom 380 145 7 0 0 2 rbump(12) - -, f 7;
#X floatatom 381 119 7 0 0 2 lbump(11) - -, f 7;
#X floatatom 380 200 7 0 0 2 start(14) - -, f 7;
#X floatatom 381 174 7 0 0 2 num - -, f 7;
#X floatatom 380 254 7 0 0 2 sixteen - -, f 7;
#X floatatom 381 228 7 0 0 2 fifteen - -, f 7;
#X text 55 191 0-8 up is 1 and then clockwise to 8 \, zero is no input
;
#X floatatom 326 19 10 0 0 1 reject - -, f 10;
#X obj 8 1 inlet;
#X obj 10 283 r yellow;
#X msg 10 335 \; yelrcv color \$1;
#X obj 10 303 expr $i1 \; if($i1==1 \, 1 \, 15) \;;
#X obj 137 283 r red;
#X msg 137 334 \; rdrcv color \$1;
#X obj 137 302 expr $i1 \; if($i1==1 \, 1 \, 13) \;;
#X obj 265 283 r green;
#X obj 265 303 expr $i1 \; if($i1==1 \, 1 \, 16) \;;
#X msg 265 335 \; grnrcv color \$1;
#X obj 390 283 r blue;
#X obj 390 303 expr $i1 \; if($i1==1 \, 1 \, 17) \;;
#X msg 390 335 \; blurcv color \$1;
#X connect 0 0 3 0;
#X connect 0 1 2 0;
#X connect 0 2 5 0;
#X connect 0 3 4 0;
#X connect 0 4 7 0;
#X connect 0 5 6 0;
#X connect 0 6 9 0;
#X connect 0 7 8 0;
#X connect 0 8 11 0;
#X connect 0 9 10 0;
#X connect 0 10 13 0;
#X connect 0 11 12 0;
#X connect 0 12 15 0;
#X connect 0 13 14 0;
#X connect 0 14 17 0;
#X connect 0 15 16 0;
#X connect 0 16 19 0;
#X connect 20 0 0 0;
#X connect 21 0 23 0;
#X connect 23 1 22 0;
#X connect 24 0 26 0;
#X connect 26 1 25 0;
#X connect 27 0 28 0;
#X connect 28 1 29 0;
#X connect 30 0 31 0;
#X connect 31 1 32 0;
#X restore 40 71 pd gamepadrouter;
#X obj 368 122 cnv 5 40 40 empty rdrcv rd 20 12 0 14 -258699 -233017
0;
#X obj 319 74 cnv 5 40 40 empty yelrcv yel 20 12 0 14 -241291 -233017
0;
#X obj 319 171 cnv 5 40 40 empty grnrcv grn 20 12 0 14 -24198 -233017
0;
#X obj 269 122 cnv 5 40 40 empty blurcv blu 20 12 0 14 -44926 -233017
0;
#X msg 40 35 start;
#X obj 40 17 loadbang;
#X connect 0 0 3 0;
#X connect 1 0 0 0;
#X connect 8 0 0 0;
#X connect 9 0 1 0;
#X connect 9 0 8 0;
