#N canvas 49 50 1438 929 10;
#X obj 35 154 hidin;
#X msg 58 135 open 1;
#X msg 46 193 4 33006;
#X msg 8 135 start;
#X obj 44 172 cyclone/prepend set;
#X obj 38 211 route 1 2 3 4 5 6 7 8 9 10 11 12 13 14 15 16;
#X obj 158 268 hsl 100 15 -67000 100 0 1 myroll empty empty 10 -12
0 10 -203904 -1 -159808 5051 0;
#X floatatom 22 277 7 0 0 2 lstickx(2) - lstwo, f 7;
#X floatatom 23 251 7 0 0 2 lsticky(1) - lsone, f 7;
#X floatatom 22 331 7 0 0 2 four - -, f 7;
#X floatatom 23 305 7 0 0 2 three - -, f 7;
#X floatatom 21 386 7 0 0 2 dpad(6) - -, f 7;
#X floatatom 22 360 7 0 0 2 five - -, f 7;
#X floatatom 21 440 7 0 0 2 redB(8) - red, f 7;
#X floatatom 22 414 7 0 0 2 greenA(7) - green, f 7;
#X floatatom 373 283 7 0 0 2 yellowY(10) - -, f 7;
#X floatatom 374 257 7 0 0 2 blueX(9) - blue, f 7;
#X floatatom 373 337 7 0 0 2 rbump(12) - -, f 7;
#X floatatom 374 311 7 0 0 2 lbump(11) - -, f 7;
#X floatatom 373 392 7 0 0 2 start(14) - -, f 7;
#X floatatom 374 366 7 0 0 2 backbtn(13) - -, f 7;
#X floatatom 373 446 7 0 0 2 rstckdown(16) - -, f 7;
#X floatatom 374 420 7 0 0 2 lstckdown(15) - -, f 7;
#X floatatom 339 211 5 0 0 3 rjct - -, f 5;
#X obj 64 116 delay 100;
#X obj 460 264 dac~;
#X msg 492 189 0;
#X obj 451 206 *~;
#X obj 491 176 bng 8 250 50 0 empty red empty 17 7 0 10 -258113 -1
-1;
#X text 69 386 0-8: up is 1 clockwise to 8 \, 0 is no input;
#N canvas 159 112 1468 846 five-instr 0;
#X text 1 -2 subpatch of xboxroller.pd;
#X obj 9 13 inlet;
#X obj 74 398 outlet~;
#X obj 138 187 vcf~ 1;
#X floatatom 219 149 3 0 0 0 - - -, f 3;
#X obj 550 106 nbx 5 60 0.5 1000 0 1 brownval empty brownval 0 20 1
35 -86853 -207257 -33289 6.53 256;
#X obj 169 96 sig~;
#X obj 151 151 osc~;
#X obj 253 104 *~;
#X obj 321 28 hsl 150 15 600 2000 0 0 empty inp empty -2 -8 0 10 -128992
-262144 -1 5779 1;
#X floatatom 550 28 5 0 0 0 - inp -, f 5;
#X obj 77 113 sig~;
#X obj 95 153 phasor~;
#X obj 211 85 osc~;
#X obj 322 48 hsl 150 15 0.1 1 0 1 empty wobblerat empty -2 -8 0 10
-262130 -1 -1 0 1;
#X floatatom 309 96 5 0 0 0 - - -, f 5;
#X floatatom 356 96 5 0 0 0 - - -, f 5;
#X obj 352 209 f 1;
#X obj 399 168 loadbang;
#X obj 94 134 *~ 0.2;
#X obj 150 131 *~ 0.2;
#X obj 181 221 osc~;
#X obj 155 68 r brownval;
#X obj 59 183 *~;
#X obj 89 336 *~ 0.59;
#X obj 62 237 osc~;
#X obj 89 300 *~;
#X floatatom 418 100 5 0 0 0 - brownval -, f 5;
#X obj 460 293 s wobblerat;
#X floatatom 412 274 5 0 0 0 - - -, f 5;
#X obj 317 319 hsl 350 8 -1 3 0 1 empty empty empty -2 -8 0 10 -262144
-1 -1 8852 1;
#X obj 350 228 expr $f1 \; (sin($f1) / 2.8) + 0.37;
#X obj 499 178 abs;
#X msg 509 221 set \$1;
#X floatatom 517 269 5 0 0 0 - - goofyenv, f 5;
#X obj 622 165 r triggrnot;
#X floatatom 606 187 5 0 0 0 - - -, f 5;
#X floatatom 498 199 5 0 0 0 - - -, f 5;
#X obj 544 250 line 0 40;
#X obj 550 86 / 100;
#X msg 621 207 0.111;
#X msg 589 206 1.1;
#X obj 187 114 r wobb;
#X obj 356 113 s wobb;
#X obj 309 113 s woba;
#X obj 108 93 r woba;
#X obj 9 33 s inp;
#X obj 64 93 r inp;
#X floatatom 21 345 5 220 1760 0 - - -, f 5;
#X msg 541 186 0 6000;
#X obj 550 66 abs;
#X obj 21 270 hradio 25 1 0 2 empty empty empty 0 -8 0 10 -204800 -9634
-1 1;
#X obj 20 308 * 200;
#X obj 21 326 + 450;
#X obj 286 108 tgl 15 0 empty empty empty 17 7 0 10 -125227 -262144
-1 1 1;
#X obj 202 377 s~ fuzz;
#X obj 107 280 r~ fuzz;
#X obj 357 78 expr (1-$f1)-0.1;
#X obj 306 76 + 0.1;
#X obj 550 46 - 490;
#X obj 398 189 metro 100;
#X obj 434 208 + 0.05;
#X obj 198 350 *~;
#X floatatom 258 180 5 0 0 0 - - -, f 5;
#X obj 212 13 r fakeloadbang;
#X obj 210 331 clip~ -0.9 0.9;
#X obj 120 300 r goofyenv;
#X obj 273 260 r goofyenv;
#X obj 250 314 * -1;
#X obj 425 119 expr $f1 \; (1/$f1) + 0.5;
#X obj 255 35 r green;
#X obj 225 268 *~;
#X obj 285 229 cos~;
#X obj 272 200 sig~;
#X obj 219 218 osc~;
#X obj 273 278 * 1.6;
#X floatatom 273 295 5 0 0 0 - - -, f 5;
#X obj 243 148 expr $i1 \; if (($i1 != 1) \, 512 \, 2);
#X connect 1 0 46 0;
#X connect 3 0 23 1;
#X connect 4 0 3 2;
#X connect 6 0 20 0;
#X connect 7 0 3 0;
#X connect 8 0 3 1;
#X connect 9 0 8 1;
#X connect 10 0 59 0;
#X connect 11 0 19 0;
#X connect 12 0 3 0;
#X connect 13 0 8 0;
#X connect 14 0 57 0;
#X connect 14 0 58 0;
#X connect 15 0 44 0;
#X connect 16 0 43 0;
#X connect 17 0 31 0;
#X connect 17 0 61 0;
#X connect 18 0 60 0;
#X connect 19 0 12 0;
#X connect 20 0 7 0;
#X connect 21 0 62 0;
#X connect 22 0 6 0;
#X connect 22 0 13 0;
#X connect 23 0 21 0;
#X connect 23 0 25 0;
#X connect 24 0 2 0;
#X connect 25 0 26 0;
#X connect 26 0 24 0;
#X connect 27 0 69 0;
#X connect 29 0 30 0;
#X connect 29 0 28 0;
#X connect 31 1 29 0;
#X connect 32 0 37 0;
#X connect 33 0 38 0;
#X connect 35 0 36 0;
#X connect 35 0 49 0;
#X connect 37 0 33 0;
#X connect 38 0 34 0;
#X connect 39 0 5 0;
#X connect 40 0 38 0;
#X connect 41 0 38 0;
#X connect 42 0 20 1;
#X connect 45 0 19 1;
#X connect 47 0 23 0;
#X connect 47 0 11 0;
#X connect 49 0 38 0;
#X connect 50 0 39 0;
#X connect 51 0 52 0;
#X connect 52 0 53 0;
#X connect 53 0 48 0;
#X connect 54 0 4 0;
#X connect 54 0 77 0;
#X connect 56 0 26 1;
#X connect 57 0 16 0;
#X connect 58 0 15 0;
#X connect 59 0 50 0;
#X connect 60 0 17 0;
#X connect 61 0 17 1;
#X connect 62 0 55 0;
#X connect 63 0 73 0;
#X connect 63 0 74 0;
#X connect 64 0 54 0;
#X connect 65 0 62 1;
#X connect 66 0 24 1;
#X connect 67 0 75 0;
#X connect 68 0 65 1;
#X connect 69 1 32 0;
#X connect 70 0 54 0;
#X connect 71 0 65 0;
#X connect 72 0 71 1;
#X connect 73 0 72 0;
#X connect 74 0 71 0;
#X connect 75 0 76 0;
#X connect 76 0 65 2;
#X connect 76 0 68 0;
#X connect 77 1 63 0;
#X restore 359 84 pd five-instr;
#N canvas 943 160 292 409 five-calc 0;
#X obj 20 5 inlet;
#X obj 52 112 int;
#X obj 52 46 + 66000;
#X obj 52 68 / 75;
#X obj 52 90 + 700;
#X obj 15 138 outlet;
#X connect 0 0 2 0;
#X connect 1 0 5 0;
#X connect 2 0 3 0;
#X connect 3 0 4 0;
#X connect 4 0 1 0;
#X restore 120 300 pd five-calc;
#X obj 359 64 r rollfrq;
#X obj 118 322 s rollfrq;
#X obj 224 351 s ampAdjust;
#N canvas 537 67 897 1004 blue-play 0;
#X obj 33 9 inlet;
#X obj 13 135 outlet~;
#X msg 162 56 read -resize wav/on.wav array1;
#X obj 162 77 soundfiler;
#X floatatom 252 385 0 0 0 0 - - -;
#X floatatom 252 442 0 0 0 0 - - -;
#X obj 252 414 expr $s2[$f1];
#X msg 326 386 symbol array2;
#N canvas 0 50 450 250 (subpatch) 0;
#X array array2 10 float 1;
#A 0 0 4 1 2 1 1 2 3 0 0;
#X coords 0 5 9 -1 100 100 1 0 0;
#X restore 357 313 graph;
#X msg 265 190 \; array2 1 2 1 2 1 1;
#X msg 268 137 \; array2 1 4 1 2 1 1 2 3;
#X msg 258 264 \; array2 0 0 1 0;
#X msg 369 263 \; array2 0 0 0 0 0 0 0 0 0;
#X obj 166 11 loadbang;
#X obj 25 72 line~;
#X obj 13 93 tabread~ array1;
#N canvas 0 50 450 250 (subpatch) 0;
#X array array1 13565 float 2;
#X coords 0 1 13565 -1 200 140 1;
#X restore 32 182 graph;
#X obj 186 32 print loadbang happened;
#X obj 129 105 delay 200;
#X msg 12 52 1200 \, 12800 855;
#X obj 39 31 select 1;
#X obj 13 111 *~ 6;
#X connect 0 0 20 0;
#X connect 2 0 3 0;
#X connect 4 0 6 0;
#X connect 6 0 5 0;
#X connect 7 0 6 1;
#X connect 13 0 2 0;
#X connect 13 0 17 0;
#X connect 13 0 18 0;
#X connect 14 0 15 0;
#X connect 15 0 21 0;
#X connect 18 0 19 0;
#X connect 19 0 14 0;
#X connect 20 0 19 0;
#X connect 21 0 1 0;
#X restore 296 175 pd blue-play;
#X obj 5 4 tgl 50 0 fakeloadbang empty empty 17 7 0 10 -4034 -257985
-1 1 1;
#X msg 4 58 \; pd dsp \$1;
#X obj 293 154 r blue;
#N canvas 575 143 1004 734 five-value 0;
#X obj 24 40 * -1;
#X obj 13 65 outlet;
#X obj 20 18 inlet;
#X connect 0 0 1 0;
#X connect 2 0 0 0;
#X restore 153 246 pd five-value;
#X text 100 225 -5-;
#X obj 12 98 r fakeloadbang;
#N canvas 733 298 986 706 five-ampcalc 0;
#X floatatom 75 54 8 0 0 0 - - -, f 8;
#X floatatom 91 122 3 0 0 0 - - -, f 3;
#X floatatom 166 122 3 0 0 0 - - -, f 3;
#X floatatom 231 196 9 0 0 0 - - -, f 9;
#X obj 67 22 inlet;
#X obj 97 290 outlet;
#X obj 85 139 expr $i1 \; $i2 \; if ($i1 == $i2 \, 0.77 \, 0.5) \;
;
#X text 29 309 TODO: make amplitude goes down at high frq and up at
low make line so amp changes happen over time;
#X text 88 180 if eq \, true \, false ie "out 0.77 if true";
#X floatatom 199 295 5 0 0 0 - - -, f 5;
#X text 301 26 0.77 is zero amplitude;
#X obj 296 221 f;
#X msg 31 246 0.77 4000;
#X obj 16 218 metro 100;
#X obj 16 197 r fakeloadbang;
#X obj 147 271 line 0 5000;
#X floatatom 265 251 5 0 0 0 - - -, f 5;
#X obj 84 78 expr $i1 \; if ($i1 > -33440 \, 1 \, 0) \; if ($i1 < -32740
\, 1 \, 0) \;;
#X obj 362 160 s triggrnot;
#X obj 310 111 expr $f1 \; if($f1==0.77 \, 1 \, 0);
#X connect 0 0 17 0;
#X connect 1 0 6 0;
#X connect 2 0 6 1;
#X connect 3 0 11 0;
#X connect 3 0 15 0;
#X connect 4 0 0 0;
#X connect 6 2 3 0;
#X connect 6 2 19 0;
#X connect 11 0 16 0;
#X connect 13 0 12 0;
#X connect 14 0 13 0;
#X connect 15 0 5 0;
#X connect 15 0 9 0;
#X connect 17 1 1 0;
#X connect 17 2 2 0;
#X connect 19 1 18 0;
#X restore 220 327 pd five-ampcalc;
#X floatatom 231 288 8 0 0 0 - - -, f 8;
#X obj 466 100 r fakeloadbang;
#X obj 458 38 r triggrnot;
#X floatatom 468 65 5 0 0 0 - - -, f 5;
#X msg 465 131 0.8;
#X obj 461 243 clip~ -1 1;
#X text 63 23 <-- push to start;
#X text 134 121 you need to know the device number of your xbox pad
\, also \, you need an xpod pad;
#X text 110 134 <--;
#X connect 0 0 4 0;
#X connect 0 0 5 0;
#X connect 1 0 0 0;
#X connect 3 0 0 0;
#X connect 4 0 2 0;
#X connect 5 0 8 0;
#X connect 5 1 7 0;
#X connect 5 2 10 0;
#X connect 5 3 9 0;
#X connect 5 4 12 0;
#X connect 5 4 39 0;
#X connect 5 5 11 0;
#X connect 5 6 14 0;
#X connect 5 7 13 0;
#X connect 5 8 16 0;
#X connect 5 9 15 0;
#X connect 5 10 18 0;
#X connect 5 11 17 0;
#X connect 5 12 20 0;
#X connect 5 13 19 0;
#X connect 5 14 22 0;
#X connect 5 15 21 0;
#X connect 5 16 23 0;
#X connect 6 0 43 0;
#X connect 24 0 3 0;
#X connect 26 0 27 1;
#X connect 27 0 48 0;
#X connect 28 0 26 0;
#X connect 30 0 27 0;
#X connect 31 0 33 0;
#X connect 32 0 30 0;
#X connect 35 0 27 0;
#X connect 36 0 37 0;
#X connect 38 0 35 0;
#X connect 39 0 31 0;
#X connect 39 0 6 0;
#X connect 41 0 24 0;
#X connect 41 0 1 0;
#X connect 42 0 34 0;
#X connect 43 0 42 0;
#X connect 44 0 47 0;
#X connect 45 0 46 0;
#X connect 47 0 27 1;
#X connect 48 0 25 0;
