#N canvas 345 57 1281 929 10;
#X obj 35 154 hidin;
#X msg 58 135 open 1;
#X msg 46 193 3 34150;
#X msg 8 135 start;
#X obj 44 172 cyclone/prepend set;
#X obj 38 211 route 1 2 3 4 5 6 7 8 9 10 11 12 13 14 15 16;
#X obj 158 268 hsl 100 15 -67000 100 0 1 myroll empty empty 10 -12
0 10 -203904 -1 -159808 5051 0;
#X floatatom 22 277 7 0 0 2 lstickx(2) - lstwo, f 7;
#X floatatom 23 251 7 0 0 2 lsticky(1) - lsone, f 7;
#X floatatom 22 331 7 0 0 2 four - -, f 7;
#X floatatom 23 305 7 0 0 2 three - -, f 7;
#X floatatom 21 386 7 0 0 2 dpad(6) - -, f 7;
#X floatatom 22 360 7 0 0 2 five - -, f 7;
#X floatatom 21 440 7 0 0 2 redB(8) - red, f 7;
#X floatatom 22 414 7 0 0 2 greenA(7) - green, f 7;
#X floatatom 373 283 7 0 0 2 yellowY(10) - -, f 7;
#X floatatom 374 257 7 0 0 2 blueX(9) - blue, f 7;
#X floatatom 373 337 7 0 0 2 rbump(12) - -, f 7;
#X floatatom 374 311 7 0 0 2 lbump(11) - -, f 7;
#X floatatom 373 392 7 0 0 2 start(14) - -, f 7;
#X floatatom 374 366 7 0 0 2 backbtn(13) - -, f 7;
#X floatatom 373 446 7 0 0 2 rstckdown(16) - -, f 7;
#X floatatom 374 420 7 0 0 2 lstckdown(15) - -, f 7;
#X floatatom 339 211 5 0 0 3 rjct - -, f 5;
#X obj 64 116 delay 100;
#X obj 460 264 dac~;
#X text 69 386 0-8: up is 1 clockwise to 8 \, 0 is no input;
#N canvas 943 160 292 409 five-calc 0;
#X obj 20 5 inlet;
#X obj 52 112 int;
#X obj 52 46 + 66000;
#X obj 52 68 / 75;
#X obj 52 90 + 700;
#X obj 15 138 outlet;
#X connect 0 0 2 0;
#X connect 1 0 5 0;
#X connect 2 0 3 0;
#X connect 3 0 4 0;
#X connect 4 0 1 0;
#X restore 120 300 pd five-calc;
#X obj 118 322 s rollfrq;
#X obj 224 351 s ampAdjust;
#X obj 5 4 tgl 50 0 fakeloadbang empty empty 17 7 0 10 -1 -257985 -1
1 1;
#X msg 4 58 \; pd dsp \$1;
#N canvas 575 143 1004 734 five-value 0;
#X obj 24 40 * -1;
#X obj 13 65 outlet;
#X obj 20 18 inlet;
#X connect 0 0 1 0;
#X connect 2 0 0 0;
#X restore 153 246 pd five-value;
#X text 100 225 -5-;
#X obj 12 98 r fakeloadbang;
#N canvas 733 298 986 706 five-ampcalc 0;
#X floatatom 75 54 8 0 0 0 - - -, f 8;
#X floatatom 91 122 3 0 0 0 - - -, f 3;
#X floatatom 166 122 3 0 0 0 - - -, f 3;
#X floatatom 231 196 9 0 0 0 - - -, f 9;
#X obj 67 22 inlet;
#X obj 97 290 outlet;
#X obj 85 139 expr $i1 \; $i2 \; if ($i1 == $i2 \, 0.77 \, 0.5) \;
;
#X text 29 309 TODO: make amplitude goes down at high frq and up at
low make line so amp changes happen over time;
#X text 88 180 if eq \, true \, false ie "out 0.77 if true";
#X floatatom 199 295 5 0 0 0 - - -, f 5;
#X text 301 26 0.77 is zero amplitude;
#X obj 296 221 f;
#X msg 31 246 0.77 4000;
#X obj 16 218 metro 100;
#X obj 16 197 r fakeloadbang;
#X obj 147 271 line 0 5000;
#X floatatom 265 251 5 0 0 0 - - -, f 5;
#X obj 84 78 expr $i1 \; if ($i1 > -33440 \, 1 \, 0) \; if ($i1 < -32740
\, 1 \, 0) \;;
#X obj 362 160 s triggrnot;
#X obj 310 111 expr $f1 \; if($f1==0.77 \, 1 \, 0);
#X connect 0 0 17 0;
#X connect 1 0 6 0;
#X connect 2 0 6 1;
#X connect 3 0 11 0;
#X connect 3 0 15 0;
#X connect 4 0 0 0;
#X connect 6 2 3 0;
#X connect 6 2 19 0;
#X connect 11 0 16 0;
#X connect 13 0 12 0;
#X connect 14 0 13 0;
#X connect 15 0 5 0;
#X connect 15 0 9 0;
#X connect 17 1 1 0;
#X connect 17 2 2 0;
#X connect 19 1 18 0;
#X restore 220 327 pd five-ampcalc;
#X floatatom 231 288 8 0 0 0 - - -, f 8;
#X text 63 23 <-- push to start;
#X text 134 121 you need to know the device number of your xbox pad
\, also \, you need an xpod pad;
#X text 110 134 <--;
#N canvas 424 90 1387 736 undercarriage 1;
#X msg 212 184 0;
#X obj 171 201 *~;
#X obj 211 171 bng 8 250 50 0 empty red empty 17 7 0 10 -258113 -1
-1;
#N canvas 159 112 1569 846 five-instr 1;
#X text 1 -2 subpatch of xboxroller.pd;
#X obj 9 13 inlet;
#X obj 36 380 outlet~;
#X obj 138 187 vcf~ 1;
#X floatatom 219 149 3 0 0 0 - - -, f 3;
#X obj 539 106 nbx 5 60 0.5 1000 0 1 brownval empty brownval 0 20 1
35 -86853 -207257 -33289 6.53 256;
#X obj 169 96 sig~;
#X obj 151 151 osc~;
#X obj 253 104 *~;
#X obj 321 28 hsl 150 15 600 2000 0 0 empty inp empty -2 -8 0 10 -128992
-262144 -1 5779 1;
#X floatatom 550 28 5 0 0 0 - inp -, f 5;
#X obj 77 113 sig~;
#X obj 95 153 phasor~;
#X obj 211 85 osc~;
#X obj 322 48 hsl 150 15 0.1 1 0 1 empty wobblerat empty -2 -8 0 10
-262130 -1 -1 3162 1;
#X floatatom 309 96 5 0 0 0 - - -, f 5;
#X floatatom 356 96 5 0 0 0 - - -, f 5;
#X obj 352 209 f 1;
#X obj 399 168 loadbang;
#X obj 94 134 *~ 0.2;
#X obj 150 131 *~ 0.2;
#X obj 181 221 osc~;
#X obj 155 68 r brownval;
#X obj 59 183 *~;
#X obj 57 297 *~ 0.59;
#X obj 54 220 osc~;
#X obj 79 253 *~;
#X floatatom 418 100 5 0 0 0 - brownval -, f 5;
#X obj 460 293 s wobblerat;
#X floatatom 412 274 5 0 0 0 - - -, f 5;
#X obj 317 319 hsl 350 8 -1 3 0 1 empty empty empty -2 -8 0 10 -262144
-1 -1 11264 1;
#X obj 350 228 expr $f1 \; (sin($f1) / 2.8) + 0.37;
#X obj 499 164 abs;
#X msg 499 202 set \$1;
#X floatatom 509 275 5 0 0 0 - - goofyenv, f 5;
#X obj 612 44 r triggrnot;
#X floatatom 499 184 5 0 0 0 - - -, f 5;
#X obj 550 86 / 100;
#X obj 187 114 r wobb;
#X obj 356 113 s wobb;
#X obj 309 113 s woba;
#X obj 108 93 r woba;
#X obj 9 33 s inp;
#X obj 64 93 r inp;
#X obj 550 66 abs;
#X obj 286 108 tgl 15 0 empty empty empty 17 7 0 10 -13381 -262144
-1 0 1;
#X obj 202 377 s~ fuzz;
#X obj 97 233 r~ fuzz;
#X obj 357 78 expr (1-$f1)-0.1;
#X obj 306 76 + 0.1;
#X obj 550 46 - 490;
#X obj 398 189 metro 100;
#X obj 434 208 + 0.05;
#X obj 198 350 *~;
#X floatatom 258 180 5 0 0 0 - - -, f 5;
#X obj 201 4 r fakeloadbang;
#X obj 210 331 clip~ -0.9 0.9;
#X obj 93 280 r goofyenv;
#X obj 273 260 r goofyenv;
#X obj 250 314 * -1;
#X obj 255 35 r green;
#X obj 225 268 *~;
#X obj 285 229 cos~;
#X obj 272 200 sig~;
#X obj 219 218 osc~;
#X floatatom 273 295 5 0 0 0 - - -, f 5;
#X obj 243 148 expr $i1 \; if (($i1 != 1) \, 2 \, 512);
#N canvas 80 359 982 664 mycomb 0;
#X obj 82 61 inlet~;
#X obj 47 279 outlet~;
#X floatatom 85 183 5 0 0 2 delay_in_ms - -, f 5;
#X obj 46 242 cyclone/comb~ 500 500 0.1 0.8 0.2;
#X obj 265 84 r lstwo;
#X obj 258 10 r lsone;
#X floatatom 265 101 5 0 0 0 - - -, f 5;
#X floatatom 258 27 5 0 0 0 - - -, f 5;
#X floatatom 415 99 5 0 0 0 - - -, f 5;
#X floatatom 165 184 5 0 0 2 gain - -, f 5;
#X floatatom 330 155 5 0 0 0 - - -, f 5;
#X obj 173 122 expr ($i1 / 300) + 20 \; (($f2+8000)/ 160000);
#X obj 211 49 expr ($i1 / 90) + (2 / $i1) + 25 \; (9000/($f2+10000))
;
#X obj 220 194 r wobblerat;
#X floatatom 208 219 5 0 0 0 - - -, f 5;
#X obj 335 184 s combfdbk;
#X obj 267 221 r combfdbk;
#X connect 0 0 3 0;
#X connect 2 0 3 1;
#X connect 3 0 1 0;
#X connect 4 0 6 0;
#X connect 5 0 7 0;
#X connect 6 0 11 0;
#X connect 6 0 11 1;
#X connect 7 0 12 0;
#X connect 7 0 12 1;
#X connect 9 0 3 2;
#X connect 10 0 15 0;
#X connect 11 0 9 0;
#X connect 11 1 10 0;
#X connect 12 0 2 0;
#X connect 12 1 8 0;
#X connect 13 0 14 0;
#X connect 14 0 3 3;
#X connect 16 0 3 4;
#X restore 39 321 pd mycomb;
#X obj 273 278 * 1.5;
#X msg 589 235 0 4400;
#X obj 671 68 bng 8 250 50 0 empty empty empty 17 7 0 10 -262144 -1
-1;
#X floatatom 502 79 5 0 0 0 - - -, f 5;
#X msg 501 25 0.05;
#X obj 434 118 expr $f1 \; $f2 \; (0.2/$f1) + $f2;
#X obj 590 209 print pack;
#X msg 656 104 bang;
#X obj 661 124 r lsone;
#X obj 536 256 line;
#X text 600 193 ^ length of env;
#X text 611 255 ^ manual length of env;
#X text 544 274 < goofyenv decreasing;
#X obj 579 177 pack 0 \$1;
#N canvas 0 50 450 300 leftstickmath 0;
#X obj 41 4 inlet;
#X obj 54 124 outlet;
#X floatatom 118 73 5 0 0 0 - - -, f 5;
#X floatatom 144 37 5 0 0 0 - - -, f 5;
#X obj 68 81 / 4;
#X floatatom 141 108 8 0 0 0 - - -, f 8;
#X obj 76 54 max 400;
#X obj 83 22 expr $f1/2;
#X obj 38 100 int;
#X connect 0 0 7 0;
#X connect 3 0 6 0;
#X connect 4 0 5 0;
#X connect 4 0 8 0;
#X connect 6 0 2 0;
#X connect 6 0 4 0;
#X connect 7 0 3 0;
#X connect 8 0 1 0;
#X restore 643 145 pd leftstickmath;
#X obj 55 357 *~;
#X obj 122 303 r wobb;
#X floatatom 133 370 5 0 0 0 - - -, f 5;
#X obj 126 325 / 5;
#X obj 127 349 + 0.7;
#X connect 1 0 42 0;
#X connect 3 0 23 1;
#X connect 4 0 3 2;
#X connect 6 0 20 0;
#X connect 7 0 3 0;
#X connect 8 0 3 1;
#X connect 9 0 8 1;
#X connect 10 0 50 0;
#X connect 11 0 19 0;
#X connect 12 0 3 0;
#X connect 13 0 8 0;
#X connect 14 0 48 0;
#X connect 14 0 49 0;
#X connect 15 0 40 0;
#X connect 16 0 39 0;
#X connect 17 0 31 0;
#X connect 17 0 52 0;
#X connect 18 0 51 0;
#X connect 19 0 12 0;
#X connect 20 0 7 0;
#X connect 21 0 53 0;
#X connect 22 0 6 0;
#X connect 22 0 13 0;
#X connect 23 0 21 0;
#X connect 23 0 25 0;
#X connect 24 0 67 0;
#X connect 25 0 26 0;
#X connect 26 0 24 0;
#X connect 27 0 73 0;
#X connect 29 0 30 0;
#X connect 29 0 28 0;
#X connect 31 1 29 0;
#X connect 32 0 36 0;
#X connect 33 0 77 0;
#X connect 35 0 70 0;
#X connect 36 0 33 0;
#X connect 37 0 5 0;
#X connect 38 0 20 1;
#X connect 41 0 19 1;
#X connect 43 0 23 0;
#X connect 43 0 11 0;
#X connect 44 0 37 0;
#X connect 45 0 4 0;
#X connect 45 0 66 0;
#X connect 47 0 26 1;
#X connect 48 0 16 0;
#X connect 49 0 15 0;
#X connect 50 0 44 0;
#X connect 51 0 17 0;
#X connect 52 0 17 1;
#X connect 53 0 46 0;
#X connect 54 0 63 0;
#X connect 54 0 64 0;
#X connect 55 0 45 0;
#X connect 55 0 72 0;
#X connect 56 0 53 1;
#X connect 57 0 24 1;
#X connect 58 0 68 0;
#X connect 59 0 56 1;
#X connect 60 0 45 0;
#X connect 61 0 56 0;
#X connect 62 0 61 1;
#X connect 63 0 62 0;
#X connect 64 0 61 0;
#X connect 65 0 56 2;
#X connect 65 0 59 0;
#X connect 66 1 54 0;
#X connect 67 0 83 0;
#X connect 68 0 65 0;
#X connect 69 0 77 0;
#X connect 70 0 75 0;
#X connect 71 0 73 1;
#X connect 72 0 71 0;
#X connect 73 2 32 0;
#X connect 75 0 81 0;
#X connect 76 0 82 0;
#X connect 77 0 34 0;
#X connect 81 0 74 0;
#X connect 81 0 77 0;
#X connect 82 0 81 1;
#X connect 83 0 2 0;
#X connect 84 0 86 0;
#X connect 86 0 87 0;
#X connect 87 0 83 1;
#X connect 87 0 85 0;
#X restore 79 79 pd five-instr;
#X obj 79 59 r rollfrq;
#N canvas 811 114 946 863 blue-play 0;
#X obj 33 9 inlet;
#X obj 3 147 outlet~;
#X msg 162 56 read -resize wav/on.wav array1;
#X obj 162 77 soundfiler;
#X obj 166 11 loadbang;
#X obj 25 72 line~;
#X obj 13 93 tabread~ array1;
#N canvas 0 50 450 250 (subpatch) 0;
#X array array1 13565 float 2;
#X coords 0 1 13565 -1 200 140 1;
#X restore 32 182 graph;
#X obj 39 31 select 1;
#X floatatom 221 103 5 0 0 0 - - -, f 5;
#X obj 105 31 delay 100;
#N canvas 0 50 450 250 (subpatch) 0;
#X array array3 13565 float 2;
#X coords 0 1 13565 -1 100 70 1 0 0;
#X restore 37 285 graph;
#X obj 65 138 tabwrite~ array3;
#X obj 129 113 metro 100;
#X obj 13 112 *~ 2;
#X msg 127 60 bang;
#X msg 13 51 2148 \, 8192 380;
#X connect 0 0 8 0;
#X connect 2 0 3 0;
#X connect 3 0 9 0;
#X connect 4 0 2 0;
#X connect 4 0 10 0;
#X connect 5 0 6 0;
#X connect 6 0 14 0;
#X connect 8 0 16 0;
#X connect 10 0 16 0;
#X connect 10 0 13 0;
#X connect 13 0 12 0;
#X connect 14 0 1 0;
#X connect 14 0 12 0;
#X connect 15 0 13 0;
#X connect 16 0 5 0;
#X restore 16 170 pd blue-play;
#X obj 13 149 r blue;
#X obj 186 95 r fakeloadbang;
#X obj 178 33 r triggrnot;
#X floatatom 188 60 5 0 0 0 - - -, f 5;
#X msg 185 126 0.8;
#X obj 181 238 clip~ -0.999 0.999;
#X obj 175 271 outlet~;
#X connect 0 0 1 1;
#X connect 1 0 11 0;
#X connect 2 0 0 0;
#X connect 3 0 1 0;
#X connect 4 0 3 0;
#X connect 5 0 1 0;
#X connect 6 0 5 0;
#X connect 7 0 10 0;
#X connect 8 0 9 0;
#X connect 10 0 1 1;
#X connect 11 0 12 0;
#X restore 478 212 pd undercarriage;
#X obj 283 37 r combfdbk;
#X obj 358 56 nbx 7 80 -1e+037 1e+037 0 0 empty empty feedback 5 -20
0 30 -159808 -262144 -228856 0.255656 256;
#X obj 199 31 r green;
#X obj 202 55 tgl 15 0 empty empty overdrive 17 -10 0 10 -4034 -1 -1
0 1;
#X connect 0 0 4 0;
#X connect 0 0 5 0;
#X connect 1 0 0 0;
#X connect 3 0 0 0;
#X connect 4 0 2 0;
#X connect 5 0 8 0;
#X connect 5 1 7 0;
#X connect 5 2 10 0;
#X connect 5 3 9 0;
#X connect 5 4 12 0;
#X connect 5 4 32 0;
#X connect 5 5 11 0;
#X connect 5 6 14 0;
#X connect 5 7 13 0;
#X connect 5 8 16 0;
#X connect 5 9 15 0;
#X connect 5 10 18 0;
#X connect 5 11 17 0;
#X connect 5 12 20 0;
#X connect 5 13 19 0;
#X connect 5 14 22 0;
#X connect 5 15 21 0;
#X connect 5 16 23 0;
#X connect 6 0 36 0;
#X connect 24 0 3 0;
#X connect 27 0 28 0;
#X connect 30 0 31 0;
#X connect 32 0 27 0;
#X connect 32 0 6 0;
#X connect 34 0 24 0;
#X connect 34 0 1 0;
#X connect 35 0 29 0;
#X connect 36 0 35 0;
#X connect 40 0 25 0;
#X connect 40 0 25 1;
#X connect 41 0 42 0;
#X connect 43 0 44 0;
