#N canvas 89 122 1047 858 10;
#X obj 317 258 *~;
#X obj 444 182 vsl 15 60 0 0.9 0 0 empty empty empty 0 -9 0 10 -257985
-1 -1 983 1;
#X obj 209 145 osc~ 44;
#X obj 274 146 osc~ 66;
#X obj 68 139 osc~ 660;
#X obj 128 143 osc~ 440;
#X obj 143 174 *~;
#X obj 148 198 *~;
#X floatatom 220 68 5 0 0 0 - - -, f 5;
#X obj 157 216 *~;
#X obj 355 139 osc~ 44;
#X obj 420 139 osc~ 66;
#X obj 28 9 inlet number;
#X obj 195 235 *~;
#X floatatom 370 51 20 0 0 0 - - -, f 20;
#X obj 128 123 *;
#X obj 220 102 pow 2;
#X obj 302 111 pow 2;
#X obj 230 121 *;
#X obj 269 121 *;
#X obj 66 114 *;
#X obj 385 102 pow 3;
#X obj 450 102 pow 3;
#X obj 431 120 *;
#X obj 379 121 *;
#X obj 266 209 osc~;
#X obj 324 218 osc~;
#X obj 337 197 *;
#X obj 356 175 pow 4;
#X obj 305 172 pow 4;
#X obj 291 192 *;
#X obj 415 68 + 0.5;
#X obj 275 12 bng 25 250 50 0 empty empty empty 17 7 0 10 -262144 -1
-1;
#X msg 474 68 2;
#X obj 47 166 sin;
#X floatatom 70 224 5 0 0 0 - - -, f 5;
#X obj 262 46 metro 200;
#X msg 78 161 1;
#X floatatom 376 25 20 0 0 0 - - -, f 20;
#X msg 196 42 2;
#X obj 317 26 max 50;
#X obj 63 202 pow 4;
#X obj 83 181 + 1.4;
#X msg 469 176 0.15;
#X floatatom 8 204 5 0 0 0 - - -, f 5;
#X floatatom 7 254 5 0 0 0 - - metrovar, f 5;
#X obj 310 5 r metrovar;
#X obj 9 237 int;
#X obj 314 358 outlet~;
#X obj 85 281 random 5;
#X obj 85 317 * 1000;
#X obj 8 219 *;
#X floatatom 85 335 5 0 0 0 - - -, f 5;
#X obj 85 299 + 1;
#X connect 0 0 48 0;
#X connect 1 0 0 1;
#X connect 2 0 7 1;
#X connect 3 0 7 1;
#X connect 4 0 6 0;
#X connect 5 0 6 1;
#X connect 6 0 7 0;
#X connect 7 0 9 0;
#X connect 8 0 15 0;
#X connect 8 0 18 0;
#X connect 8 0 19 0;
#X connect 8 0 20 0;
#X connect 8 0 23 0;
#X connect 8 0 24 0;
#X connect 8 0 27 0;
#X connect 8 0 30 0;
#X connect 9 0 13 0;
#X connect 10 0 9 1;
#X connect 11 0 9 1;
#X connect 12 0 39 0;
#X connect 12 0 32 0;
#X connect 13 0 0 0;
#X connect 14 0 16 0;
#X connect 14 0 20 1;
#X connect 14 0 21 0;
#X connect 14 0 29 0;
#X connect 14 0 31 0;
#X connect 15 0 5 0;
#X connect 16 0 18 1;
#X connect 17 0 19 1;
#X connect 18 0 2 0;
#X connect 19 0 3 0;
#X connect 20 0 4 0;
#X connect 20 0 34 0;
#X connect 21 0 24 1;
#X connect 22 0 23 1;
#X connect 23 0 11 0;
#X connect 24 0 10 0;
#X connect 25 0 13 1;
#X connect 26 0 13 1;
#X connect 27 0 26 0;
#X connect 28 0 27 1;
#X connect 29 0 30 1;
#X connect 30 0 25 0;
#X connect 31 0 15 1;
#X connect 31 0 17 0;
#X connect 31 0 22 0;
#X connect 31 0 28 0;
#X connect 32 0 36 0;
#X connect 32 0 39 0;
#X connect 32 0 43 0;
#X connect 32 0 49 0;
#X connect 33 0 14 0;
#X connect 34 0 42 0;
#X connect 35 0 14 0;
#X connect 36 0 8 0;
#X connect 36 0 14 0;
#X connect 37 0 42 1;
#X connect 39 0 8 0;
#X connect 40 0 36 1;
#X connect 40 0 38 0;
#X connect 41 0 35 0;
#X connect 42 0 41 0;
#X connect 42 0 44 0;
#X connect 43 0 1 0;
#X connect 44 0 51 0;
#X connect 46 0 40 0;
#X connect 47 0 45 0;
#X connect 49 0 53 0;
#X connect 50 0 51 1;
#X connect 50 0 52 0;
#X connect 51 0 47 0;
#X connect 53 0 50 0;
