#N canvas 667 128 603 777 10;
#X floatatom 194 12 5 0 0 0 dial - -, f 5;
#X obj 7 126 reverb01~;
#X obj 144 129 reverb01~;
#X obj 9 23 loadbang;
#X obj 100 191 /~ 1.5;
#X obj 208 191 /~ 1.5;
#X msg 50 44 50;
#X obj 159 351 dac~;
#X floatatom 233 290 5 0 0 0 - - -, f 5;
#X obj 160 328 *~;
#X msg 230 256 0.4;
#X obj 36 190 *~ 0.08;
#X obj 152 191 *~ 0.08;
#X obj 165 96 amdial;
#X obj 221 95 amdial;
#X obj 55 96 amdial;
#X obj 111 95 amdial;
#X connect 0 0 13 0;
#X connect 0 0 14 0;
#X connect 0 0 15 0;
#X connect 0 0 16 0;
#X connect 1 0 11 0;
#X connect 1 1 11 0;
#X connect 2 0 12 0;
#X connect 2 1 12 0;
#X connect 3 0 6 0;
#X connect 3 0 10 0;
#X connect 4 0 9 0;
#X connect 5 0 9 0;
#X connect 6 0 1 1;
#X connect 6 0 2 1;
#X connect 8 0 9 1;
#X connect 9 0 7 0;
#X connect 9 0 7 1;
#X connect 10 0 8 0;
#X connect 11 0 9 0;
#X connect 12 0 9 0;
#X connect 13 0 2 0;
#X connect 14 0 5 0;
#X connect 15 0 1 0;
#X connect 16 0 4 0;
