#N canvas 63 74 897 827 10;
#X obj 40 53 hidin;
#N canvas 995 152 897 1004 gamepadrouter 0;
#X obj 25 19 route 1 2 3 4 5 6 7 8 9 10 11 12 13 14 15 16;
#X text 24 33 1 2 3 4 5 6 7 8 9 10 11 12 1314 15 16 reject;
#X floatatom 9 85 7 0 0 2 two - lsx2, f 7;
#X floatatom 10 59 7 0 0 2 one - lsy1, f 7;
#X floatatom 9 139 7 0 0 2 four - rsx4, f 7;
#X floatatom 10 113 7 0 0 2 three - rsy3, f 7;
#X floatatom 8 194 7 0 0 2 dpad(6) - dpad, f 7;
#X floatatom 9 168 7 0 0 2 triggers(5) - triggers, f 7;
#X floatatom 8 248 7 0 0 2 redB(8) - red, f 7;
#X floatatom 9 222 7 0 0 2 greenA(7) - green, f 7;
#X floatatom 380 91 7 0 0 2 yellowY(10) - yellow, f 7;
#X floatatom 381 65 7 0 0 2 blueX(9) - blue, f 7;
#X floatatom 380 145 7 0 0 2 rbump(12) - rbumpbtn, f 7;
#X floatatom 381 119 7 0 0 2 lbump(11) - lbumpbtn, f 7;
#X floatatom 380 200 7 0 0 2 start(14) - startbtn, f 7;
#X floatatom 381 174 7 0 0 2 back(13) - backbtn, f 7;
#X floatatom 380 254 7 0 0 2 rstkdown(16) - rstkdown, f 7;
#X floatatom 381 228 2 0 0 2 lstkdown(15) - lstkdown, f 2;
#X text 55 191 0-8 up is 1 and then clockwise to 8 \, zero is no input
;
#X floatatom 326 19 10 0 0 1 reject - -, f 10;
#X obj 8 1 inlet;
#X obj 10 283 r yellow;
#X msg 10 335 \; yelrcv color \$1;
#X obj 10 303 expr $i1 \; if($i1==1 \, 1 \, 15) \;;
#X obj 147 283 r red;
#X msg 147 334 \; rdrcv color \$1;
#X obj 147 302 expr $i1 \; if($i1==1 \, 1 \, 13) \;;
#X obj 285 283 r green;
#X obj 285 303 expr $i1 \; if($i1==1 \, 1 \, 16) \;;
#X msg 285 335 \; grnrcv color \$1;
#X obj 480 263 r blue;
#X msg 503 335 \; blurcv color \$1;
#N canvas 0 50 1076 821 dorbg 0;
#X obj 97 56 inlet;
#X obj 262 53 inlet;
#X obj 339 55 inlet;
#X obj 405 56 inlet;
#X obj 97 270 bang;
#X msg 77 295 0;
#X msg 104 295 1;
#X obj 146 268 bang;
#X msg 132 295 0;
#X msg 160 295 1;
#X obj 265 313 spigot;
#X obj 312 313 spigot;
#X obj 249 385 outlet;
#X text 93 33 select;
#X text 267 28 red;
#X text 337 30 green;
#X text 409 30 blue;
#X obj 405 102 t b f;
#X obj 339 160 +;
#X obj 339 185 t b f;
#X obj 339 216 +;
#X obj 296 385 outlet;
#X obj 28 180 loadbang;
#X obj 296 361 f;
#X obj 249 361 f;
#X obj 262 79 * -65536;
#X obj 339 80 * -256;
#X obj 405 80 * -1;
#X obj 339 247 - 1;
#X obj 97 135 route back label bang;
#X obj 235 168 t b b b;
#X connect 0 0 29 0;
#X connect 1 0 25 0;
#X connect 2 0 26 0;
#X connect 3 0 27 0;
#X connect 4 0 5 0;
#X connect 4 0 6 0;
#X connect 5 0 11 1;
#X connect 6 0 10 1;
#X connect 7 0 8 0;
#X connect 7 0 9 0;
#X connect 8 0 10 1;
#X connect 9 0 11 1;
#X connect 10 0 24 1;
#X connect 11 0 23 1;
#X connect 17 0 18 0;
#X connect 17 1 18 1;
#X connect 18 0 19 0;
#X connect 19 0 20 0;
#X connect 19 1 20 1;
#X connect 20 0 28 0;
#X connect 22 0 6 0;
#X connect 23 0 21 0;
#X connect 24 0 12 0;
#X connect 25 0 20 0;
#X connect 26 0 18 0;
#X connect 27 0 17 0;
#X connect 28 0 11 0;
#X connect 28 0 10 0;
#X connect 29 0 4 0;
#X connect 29 1 7 0;
#X connect 29 2 30 0;
#X connect 30 0 24 0;
#X connect 30 1 23 0;
#X connect 30 2 28 0;
#X restore 172 248 pd dorbg;
#X obj 147 373 r startbtn;
#X obj 10 373 r backbtn;
#X obj 285 373 r lbumpbtn;
#X obj 420 373 r rbumpbtn;
#X msg 10 425 \; bckrcv color \$1;
#X msg 147 424 \; mnurcv color \$1;
#X obj 10 393 expr $i1 \; if($i1==1 \, 5 \, 10) \;;
#X obj 147 392 expr $i1 \; if($i1==1 \, 5 \, 10) \;;
#X msg 285 425 \; lfbrcv color \$1;
#X obj 420 393 expr $i1 \; if($i1==1 \, 5 \, 26) \;;
#X msg 420 425 \; rtbrcv color \$1 \;;
#X obj 285 393 expr $i1 \; if($i1==1 \, 5 \, 26) \;;
#X obj 660 345 route 1 17;
#X obj 480 283 expr $i1 \; if($i1==1 \, 1 \, 17) \;;
#X connect 0 0 3 0;
#X connect 0 1 2 0;
#X connect 0 2 5 0;
#X connect 0 3 4 0;
#X connect 0 4 7 0;
#X connect 0 5 6 0;
#X connect 0 6 9 0;
#X connect 0 7 8 0;
#X connect 0 8 11 0;
#X connect 0 9 10 0;
#X connect 0 10 13 0;
#X connect 0 11 12 0;
#X connect 0 12 15 0;
#X connect 0 13 14 0;
#X connect 0 14 17 0;
#X connect 0 15 16 0;
#X connect 0 16 19 0;
#X connect 20 0 0 0;
#X connect 21 0 23 0;
#X connect 23 1 22 0;
#X connect 24 0 26 0;
#X connect 26 1 25 0;
#X connect 27 0 28 0;
#X connect 28 1 29 0;
#X connect 30 0 46 0;
#X connect 33 0 40 0;
#X connect 34 0 39 0;
#X connect 35 0 44 0;
#X connect 36 0 42 0;
#X connect 39 1 37 0;
#X connect 40 1 38 0;
#X connect 42 1 43 0;
#X connect 44 1 41 0;
#X connect 46 1 31 0;
#X connect 46 1 45 0;
#X restore 40 71 pd gamepadrouter;
#X msg 40 35 start;
#X obj 40 17 loadbang;
#X obj 139 151 cnv 20 45 20 empty bckrcv bck 12 6 1 12 -233017 -66577
0;
#X obj 226 151 cnv 20 45 20 empty mnurcv mnu 12 6 1 12 -233017 -66577
0;
#N canvas 675 249 947 488 rtbbtn 0;
#X obj 2 2 cnv 7 73 23 empty rtbrcv rtb 5 8 0 12 -42246 -262144 0;
#X obj 116 10 loadbang;
#X msg 149 70 rtbrcv vis_size 73 23;
#X msg 71 150 rtbrcv color 26;
#X floatatom 56 7 2 0 0 0 - rbumpbtn -, f 2;
#X msg 344 48 rtbrcv label rtb;
#X obj 1 20 cnv 5 45 6 empty empty rbumpbtn 2 2 0 8 -249661 -66577
0;
#X connect 1 0 3 0;
#X connect 1 0 2 0;
#X connect 1 0 5 0;
#X coords 0 -100 100 100 75 25 2 1 1;
#X restore 279 146 pd rtbbtn;
#N canvas 1030 278 862 642 lfbbtn 0;
#X obj 2 2 cnv 7 73 23 empty lfbrcv lfb 2 6 0 10 -42246 -262144 0;
#X obj 116 10 loadbang;
#X floatatom 57 3 2 0 0 0 - lbumpbtn -, f 2;
#X msg 94 48 lfbrcv color 26;
#X msg 267 48 lfbrcv vis_size 73 23;
#X obj 1 18 cnv 5 45 8 empty empty lbumpbtn 2 3 0 8 -249661 -66577
0;
#X connect 1 0 3 0;
#X connect 1 0 4 0;
#X coords 0 -100 100 100 75 25 2 1 1;
#X restore 56 144 pd lfbbtn;
#N canvas 590 166 1219 1004 dpadcanvas 0;
#X floatatom 56 28 2 0 0 0 - dpad -, f 2;
#X obj 3 6 cnv 12 10 10 empty a18 8 7 7 0 12 -262144 -66577 0;
#X obj 18 6 cnv 12 10 10 empty a21 1 7 7 0 12 -262144 -66577 0;
#X obj 33 6 cnv 12 10 10 empty a32 2 7 7 0 12 -262144 -66577 0;
#X obj 3 21 cnv 12 10 10 empty b17 7 7 7 0 12 -262144 -66577 0;
#X obj 18 21 cnv 12 10 10 empty b20 0 7 7 0 12 -262131 -66577 0;
#X obj 33 21 cnv 12 10 10 empty b33 3 7 7 0 12 -262144 -66577 0;
#X obj 3 36 cnv 12 10 10 empty c16 6 7 7 0 12 -262144 -66577 0;
#X obj 18 36 cnv 12 10 10 empty c25 5 7 7 0 12 -262144 -66577 0;
#X obj 33 36 cnv 12 10 10 empty c34 4 7 7 0 12 -262144 -66577 0;
#X obj 144 8 r dpad;
#X obj 144 49 route 0 1 2 3 4 5 6 7 8;
#X obj 305 49 print dpaderror;
#X msg 61 104 \; a18 color 0 \; a21 color 0 \; a32 color 0 \; b17 color
0 \; b20 color 5 \; b33 color 0 \; c16 color 0 \; c25 color 0 \; c34
color 0 \;;
#X msg 16 243 \; a18 color 0 \; a21 color 5 \; a32 color 0 \; b17 color
0 \; b20 color 0 \; b33 color 0 \; c16 color 0 \; c25 color 0 \; c34
color 0 \;;
#X msg 146 104 \; a18 color 0 \; a21 color 0 \; a32 color 5 \; b17
color 0 \; b20 color 0 \; b33 color 0 \; c16 color 0 \; c25 color 0
\; c34 color 0 \;;
#X msg 101 243 \; a18 color 0 \; a21 color 0 \; a32 color 0 \; b17
color 0 \; b20 color 0 \; b33 color 5 \; c16 color 0 \; c25 color 0
\; c34 color 0 \;;
#X msg 231 104 \; a18 color 0 \; a21 color 0 \; a32 color 0 \; b17
color 0 \; b20 color 0 \; b33 color 0 \; c16 color 0 \; c25 color 0
\; c34 color 5 \;;
#X msg 186 243 \; a18 color 0 \; a21 color 0 \; a32 color 0 \; b17
color 0 \; b20 color 0 \; b33 color 0 \; c16 color 0 \; c25 color 5
\; c34 color 0 \;;
#X msg 316 104 \; a18 color 0 \; a21 color 0 \; a32 color 0 \; b17
color 0 \; b20 color 0 \; b33 color 0 \; c16 color 5 \; c25 color 0
\; c34 color 0 \;;
#X msg 356 243 \; a18 color 5 \; a21 color 0 \; a32 color 0 \; b17
color 0 \; b20 color 0 \; b33 color 0 \; c16 color 0 \; c25 color 0
\; c34 color 0 \;;
#X msg 272 243 \; a18 color 0 \; a21 color 0 \; a32 color 0 \; b17
color 5 \; b20 color 0 \; b33 color 0 \; c16 color 0 \; c25 color 0
\; c34 color 0 \;;
#X floatatom 56 9 2 0 0 0 - lastnum -, f 2;
#X msg 137 70 1;
#X floatatom 350 88 3 0 0 0 - - lastnum, f 3;
#X msg 165 70 2;
#X msg 190 70 3;
#X msg 215 70 4;
#X msg 240 70 5;
#X msg 265 70 6;
#X msg 290 70 7;
#X msg 315 70 8;
#X obj 446 23 loadbang;
#X floatatom 51 59 3 0 0 0 y - -, f 3;
#X floatatom 14 59 3 0 0 0 x - -, f 3;
#N canvas 623 50 1103 965 retainxy 0;
#X obj 9 19 inlet;
#X floatatom 368 50 5 100 999 0 - - yvar, f 5;
#X floatatom 326 50 5 100 999 0 - - xvar, f 5;
#X obj 333 5 loadbang;
#X msg 348 28 100;
#X floatatom 438 52 5 0 0 0 incr - incr, f 5;
#X msg 390 28 2;
#X obj 273 109 s dul;
#X obj 49 109 s dur;
#X obj 10 109 s duu;
#X obj 86 109 s drr;
#X obj 126 109 s ddr;
#X obj 163 109 s ddd;
#X obj 199 109 s ddl;
#X obj 236 109 s dll;
#X obj 40 174 r yvar;
#X obj 182 130 r incr;
#X floatatom 89 249 5 0 0 2 yvar_out - yvar, f 5;
#X msg 7 174 bang;
#X obj 7 156 r duu;
#X floatatom 25 37 5 0 0 0 - - -, f 5;
#X obj 9 54 route 1 2 3 4 5 6 7 8;
#X msg 9 73 1;
#X msg 37 73 2;
#X msg 62 73 3;
#X msg 87 73 4;
#X msg 112 73 5;
#X msg 137 73 6;
#X msg 162 73 7;
#X msg 187 73 8;
#X obj 18 193 expr $i1 \; $i2 \; $i3 \; $i2 + $i3 \;;
#X obj 175 174 r yvar;
#X floatatom 224 254 5 0 0 2 yvar_out - yvar, f 5;
#X msg 142 174 bang;
#X obj 142 156 r ddd;
#X floatatom 324 65 3 100 999 0 xvar xvar -, f 3;
#X floatatom 386 66 3 100 999 0 yvar yvar -, f 3;
#X floatatom 155 264 5 0 0 0 - - -, f 5;
#X obj 153 193 expr $i1 \; $i2 \; $i3 \; $i2-$i3 \;;
#X floatatom 343 279 5 0 0 2 xvar_out - xvar, f 5;
#X msg 277 174 bang;
#X floatatom 290 264 5 0 0 0 - - -, f 5;
#X floatatom 467 262 5 0 0 2 xvar_out - xvar, f 5;
#X msg 407 174 bang;
#X floatatom 420 264 5 0 0 0 - - -, f 5;
#X obj 418 193 expr $i1 \; $i2 \; $i3 \; $i2-$i3 \;;
#X obj 352 170 r xvar;
#X obj 288 193 expr $i1 \; $i2 \; $i3 \; $i2+$i3 \;;
#X obj 277 156 r drr;
#X obj 408 156 r dll;
#X obj 320 83 outlet;
#X obj 387 82 outlet;
#X obj 226 289 r yvar;
#X obj 182 290 r incr;
#X msg 7 334 bang;
#X msg 142 334 bang;
#X msg 277 334 bang;
#X msg 407 334 bang;
#X obj 136 290 r xvar;
#X obj 7 316 r dur;
#X obj 142 316 r ddr;
#X obj 277 316 r dul;
#X obj 18 353 expr $i1 \; $i2 \; $i3 \; $i4 \; $i2 + $i4 \; $i3 + $i4
\;;
#X obj 408 316 r ddl;
#X obj 418 352 expr $i1 \; $i2 \; $i3 \; $i4 \; $i2 - $i4 \; $i3 -
$i4 \;;
#X floatatom 20 445 5 0 0 2 xvar_out - xvar, f 5;
#X floatatom 145 445 5 0 0 2 xvar_out - xvar, f 5;
#X floatatom 285 445 5 0 0 2 xvar_out - xvar, f 5;
#X floatatom 410 445 5 0 0 2 xvar_out - xvar, f 5;
#X floatatom 79 449 5 0 0 2 yvar_out - yvar, f 5;
#X floatatom 199 449 5 0 0 2 yvar_out - yvar, f 5;
#X floatatom 344 449 5 0 0 2 yvar_out - yvar, f 5;
#X floatatom 479 449 5 0 0 2 yvar_out - yvar, f 5;
#X obj 288 353 expr $i1 \; $i2 \; $i3 \; $i4 \; $i2 - $i4 \; $i3 +
$i4 \;;
#X obj 153 352 expr $i1 \; $i2 \; $i3 \; $i4 \; $i2 + $i4 \; $i3 -
$i4 \;;
#X connect 0 0 20 0;
#X connect 0 0 21 0;
#X connect 3 0 4 0;
#X connect 3 0 6 0;
#X connect 4 0 2 0;
#X connect 4 0 1 0;
#X connect 6 0 5 0;
#X connect 15 0 30 1;
#X connect 16 0 30 2;
#X connect 16 0 38 2;
#X connect 16 0 45 2;
#X connect 16 0 47 2;
#X connect 18 0 30 0;
#X connect 19 0 18 0;
#X connect 21 0 22 0;
#X connect 21 1 23 0;
#X connect 21 2 24 0;
#X connect 21 3 25 0;
#X connect 21 4 26 0;
#X connect 21 5 27 0;
#X connect 21 6 28 0;
#X connect 21 7 29 0;
#X connect 22 0 9 0;
#X connect 23 0 8 0;
#X connect 24 0 10 0;
#X connect 25 0 11 0;
#X connect 26 0 12 0;
#X connect 27 0 13 0;
#X connect 28 0 14 0;
#X connect 29 0 7 0;
#X connect 30 3 17 0;
#X connect 31 0 38 1;
#X connect 33 0 38 0;
#X connect 34 0 33 0;
#X connect 35 0 50 0;
#X connect 36 0 51 0;
#X connect 38 1 37 0;
#X connect 38 3 32 0;
#X connect 40 0 47 0;
#X connect 43 0 45 0;
#X connect 45 1 44 0;
#X connect 45 3 42 0;
#X connect 46 0 45 1;
#X connect 46 0 47 1;
#X connect 47 1 41 0;
#X connect 47 3 39 0;
#X connect 48 0 40 0;
#X connect 49 0 43 0;
#X connect 52 0 62 2;
#X connect 52 0 64 2;
#X connect 52 0 73 2;
#X connect 52 0 74 2;
#X connect 53 0 62 3;
#X connect 53 0 64 3;
#X connect 53 0 73 3;
#X connect 53 0 74 3;
#X connect 54 0 62 0;
#X connect 55 0 74 0;
#X connect 56 0 73 0;
#X connect 57 0 64 0;
#X connect 58 0 62 1;
#X connect 58 0 64 1;
#X connect 58 0 73 1;
#X connect 58 0 74 1;
#X connect 59 0 54 0;
#X connect 60 0 55 0;
#X connect 61 0 56 0;
#X connect 62 4 65 0;
#X connect 62 5 69 0;
#X connect 63 0 57 0;
#X connect 64 4 68 0;
#X connect 64 5 72 0;
#X connect 73 4 67 0;
#X connect 73 5 71 0;
#X connect 74 4 66 0;
#X connect 74 5 70 0;
#X restore 189 28 pd retainxy;
#X msg 483 147 \; a18 pos \$5 \$2 \; a21 pos \$6 \$2 \; a32 pos \$7
\$2 \; b17 pos \$5 \$3 \; b20 pos \$6 \$3 \; b33 pos \$7 \$3 \; c16
pos \$5 \$4 \; c25 pos \$6 \$4 \; c34 pos \$7 \$4 \; a18 vis_size \$1
\$1 \; a21 vis_size \$1 \$1 \; a32 vis_size \$1 \$1 \; b17 vis_size
\$1 \$1 \; b20 vis_size \$1 \$1 \; b33 vis_size \$1 \$1 \; c16 vis_size
\$1 \$1 \; c25 vis_size \$1 \$1 \; c34 vis_size \$1 \$1 \;;
#X obj 3 55 cnv 2 71 2 empty empty empty 20 12 0 14 -86853 -66577 0
;
#X msg 449 44 10 6 21 36 3 18 33;
#X connect 10 0 11 0;
#X connect 10 0 35 0;
#X connect 11 0 13 0;
#X connect 11 1 23 0;
#X connect 11 2 25 0;
#X connect 11 3 26 0;
#X connect 11 4 27 0;
#X connect 11 5 28 0;
#X connect 11 6 29 0;
#X connect 11 7 30 0;
#X connect 11 8 31 0;
#X connect 11 9 12 0;
#X connect 23 0 14 0;
#X connect 23 0 24 0;
#X connect 25 0 15 0;
#X connect 25 0 24 0;
#X connect 26 0 16 0;
#X connect 26 0 24 0;
#X connect 27 0 17 0;
#X connect 27 0 24 0;
#X connect 28 0 18 0;
#X connect 28 0 24 0;
#X connect 29 0 19 0;
#X connect 29 0 24 0;
#X connect 30 0 21 0;
#X connect 30 0 24 0;
#X connect 31 0 20 0;
#X connect 31 0 24 0;
#X connect 32 0 38 0;
#X connect 35 0 34 0;
#X connect 35 1 33 0;
#X connect 38 0 36 0;
#X coords 0 -1 1 1 75 75 2 1 1;
#X restore 39 294 pd dpadcanvas;
#N canvas 52 156 897 807 rstick 0;
#X obj 36 37 cnv 2 5 5 empty rstk empty 20 12 0 14 -260818 -66577 0
;
#X obj 232 26 loadbang;
#X text 97 1 right stick;
#X floatatom 34 59 5 0 0 0 rsy3 rsy3 -, f 5;
#X floatatom 34 44 5 0 0 0 rsx4 rsx4 -, f 5;
#X obj 17 172 int;
#X floatatom 17 219 5 0 0 0 - - -, f 5;
#X obj 17 137 r rsx4;
#X obj 82 172 int;
#X floatatom 82 219 5 0 0 0 - - -, f 5;
#X obj 82 137 r rsy3;
#X obj 103 247 pack;
#X msg 17 286 \; rstk pos \$1 \$2;
#X floatatom 173 192 5 0 0 0 - - -, f 5;
#X msg 226 196 \; rstk color \$1;
#X obj 170 159 expr $i1 \; if($i1==1 \, 16 \, 14) \;;
#X obj 160 123 r rstkdown;
#X msg 174 59 \; rstk pos 33 33;
#X obj 17 154 * 0.001;
#X obj 82 154 * 0.001;
#X obj 95 196 + 3;
#X obj 16 196 + 3;
#X connect 1 0 17 0;
#X connect 5 0 21 0;
#X connect 6 0 11 0;
#X connect 7 0 18 0;
#X connect 8 0 20 0;
#X connect 9 0 11 1;
#X connect 10 0 19 0;
#X connect 11 0 12 0;
#X connect 15 0 13 0;
#X connect 15 1 14 0;
#X connect 16 0 15 0;
#X connect 18 0 5 0;
#X connect 19 0 8 0;
#X connect 20 0 9 0;
#X connect 21 0 6 0;
#X coords 0 0 65535 65535 75 75 2 0 0;
#X restore 124 294 pd rstick;
#N canvas 246 144 1007 796 lstick 0;
#X obj 43 44 cnv 2 5 5 empty lstk empty 20 12 0 14 -260818 -66577 0
;
#X obj 200 35 loadbang;
#X floatatom 72 75 2 0 0 0 lstkdown lstkdown -, f 2;
#X floatatom 51 59 5 0 0 0 lsy1 lsy1 -, f 5;
#X floatatom 51 44 5 0 0 0 lsx2 lsx2 -, f 5;
#X obj 17 172 int;
#X floatatom 17 189 5 0 0 0 - - -, f 5;
#X obj 82 172 int;
#X floatatom 82 189 5 0 0 0 - - -, f 5;
#X obj 103 217 pack;
#X floatatom 166 146 5 0 0 0 - - -, f 5;
#X obj 163 113 expr $i1 \; if($i1==1 \, 16 \, 14) \;;
#X text 96 1 left stick;
#X msg 174 59 \; lstk pos 87 87;
#X msg 226 196 \; lstk color \$1;
#X msg 17 246 \; lstk pos \$1 \$2;
#X obj 82 137 r lsy1;
#X obj 17 137 r lsx2;
#X obj 82 154 * 0.0013;
#X obj 17 154 * 0.0013;
#X connect 1 0 13 0;
#X connect 2 0 11 0;
#X connect 5 0 6 0;
#X connect 6 0 9 0;
#X connect 7 0 8 0;
#X connect 8 0 9 1;
#X connect 9 0 15 0;
#X connect 11 0 10 0;
#X connect 11 1 14 0;
#X connect 16 0 18 0;
#X connect 17 0 19 0;
#X connect 18 0 7 0;
#X connect 19 0 5 0;
#X coords 0 0 65535 65535 90 90 2 1 1;
#X restore 23 195 pd lstick;
#N canvas 219 405 1241 497 trgrdisplay 0;
#X obj 14 34 r triggers;
#X obj 14 53 expr $i1 \; if($i1==32768 \, 1 \, 0);
#X floatatom 66 150 5 0 0 0 - - -, f 5;
#X floatatom 195 150 5 0 0 0 - - -, f 5;
#X obj 168 2 cnv 7 15 22 empty trgrmid 32768 1 12 0 9 -250685 -262144
0;
#X msg 64 203 \; trgrmid color \$1;
#X obj 65 168 expr $i1 \; if($i1==1 \, 19 \, 9) \;;
#X obj 195 168 expr $i1 \; if($i1==1 \, 19 \, 9) \;;
#X obj 2 2 cnv 7 15 22 empty trgrhigh 65408 1 12 0 9 -257472 -262144
0;
#X msg 194 203 \; trgrhigh color \$1;
#X obj 14 85 expr $i1 \; $i2 \; if(($i2!=1)&($i1>=32768) \, 1 \, 0)
\; if(($i2!=1)&($i1<=32768) \, 1 \, 0);
#X floatatom 325 150 5 0 0 0 - - -, f 5;
#X obj 325 168 expr $i1 \; if($i1==1 \, 19 \, 9) \;;
#X msg 324 202 \; trgrlow color \$1;
#X obj 334 2 cnv 7 15 22 empty trgrlow 128 1 12 0 9 -257472 -262144
0;
#X obj 175 3 cnv 1 2 24 empty trgrpos empty 20 12 0 14 -159808 -66577
0;
#X floatatom 237 7 5 0 0 0 - triggers -, f 5;
#X msg 264 73 \; trgrpos pos \$1 3;
#X floatatom 399 61 5 0 0 0 - - -, f 5;
#X floatatom 403 87 5 0 0 0 - - -, f 5;
#X obj 266 38 expr $i1 \; 350-($i1*0.00534) \;;
#X connect 0 0 1 0;
#X connect 1 0 10 0;
#X connect 1 1 10 1;
#X connect 2 0 6 0;
#X connect 3 0 7 0;
#X connect 6 1 5 0;
#X connect 7 1 9 0;
#X connect 10 1 2 0;
#X connect 10 2 3 0;
#X connect 10 3 11 0;
#X connect 11 0 12 0;
#X connect 12 1 13 0;
#X connect 16 0 20 0;
#X connect 20 0 19 0;
#X connect 20 1 17 0;
#X connect 20 1 18 0;
#X coords 0 -1 65500 1 350 25 2 1 1;
#X restore 32 112 pd trgrdisplay;
#X msg 108 35 open 2;
#X text 154 35 <-- assuming your device id is two \, if not sure "bang"
hidin;
#X msg 497 51 bang, f 7;
#N canvas 106 233 1079 685 (subpatch) 0;
#X obj 39 39 cnv 35 35 35 empty rdrcv empty 20 12 1 10 -258699 -1 0
;
#X obj 39 1 cnv 35 35 35 empty yelrcv empty 20 12 1 10 -241291 -1 0
;
#X obj 1 39 cnv 35 35 35 empty grnrcv empty 20 12 1 10 -24198 -1 0
;
#X obj 1 1 cnv 35 35 35 empty blurcv empty 20 12 1 10 -44926 -1 0;
#X coords 0 0 75 75 75 75 2 0 0;
#X restore 124 209 graph;
#N canvas 588 432 777 406 dostuff 1;
#X obj 21 368 outlet~;
#X obj 21 21 r blue;
#X obj 147 107 *~;
#X obj 219 85 line~;
#X msg 147 63 0 100;
#X obj 147 44 route 0 1;
#X obj 147 21 r yellow;
#X obj 147 85 osc~ 880;
#X obj 273 107 *~;
#X obj 335 105 line~;
#X obj 273 44 route 0 1;
#X obj 273 21 r green;
#X obj 426 23 r red;
#X msg 197 63 0.2 100;
#X obj 274 84 phasor~ 440;
#X msg 323 63 0.4 250;
#X msg 274 63 0 300;
#X obj 273 133 rev2~ 94 84 3502 60;
#X obj 492 23 r lastnum;
#X floatatom 527 47 5 0 0 0 - - -, f 5;
#N canvas 832 221 1026 640 redlastnum 0;
#X msg 107 322 bang;
#X obj 106 346 mysnare~;
#X floatatom 81 102 5 0 0 0 - - -, f 5;
#X obj 81 56 expr $i1 \; $i2 \; if ($i1 == 1 \, $i2 \, 666) \;;
#X obj 81 119 route 0 1 2 3 4 5 6 7 8 666;
#X msg 21 313 bang;
#X obj 21 336 mysnare~;
#X msg 74 313 0.3;
#X msg 197 322 bang;
#X obj 196 346 mysnare~;
#X obj 64 20 inlet;
#X obj 252 21 inlet;
#X obj 125 529 outlet~;
#X obj 101 376 rev2~ 84 75 3000 70;
#X msg 147 322 0.25;
#X obj 123 416 *~ 1.2;
#X msg 417 322 bang;
#X msg 457 322 0.4;
#X obj 417 346 myclap~;
#X obj 421 377 rev2~ 74 70 4440 96;
#X msg 587 322 bang;
#X obj 587 346 myclap~;
#X obj 338 462 *~;
#X msg 235 322 1;
#X msg 625 323 1;
#X obj 591 377 rev2~ 74 80 4440 96;
#X obj 251 377 rev2~ 89 80 440 0;
#X msg 797 372 bang;
#X msg 835 373 0.5;
#X obj 797 396 mysnare2~;
#X msg 886 374 1600;
#X connect 0 0 1 0;
#X connect 1 0 13 0;
#X connect 1 0 15 0;
#X connect 2 0 4 0;
#X connect 3 2 2 0;
#X connect 4 0 5 0;
#X connect 4 0 7 0;
#X connect 4 1 0 0;
#X connect 4 1 14 0;
#X connect 4 2 5 0;
#X connect 4 2 7 0;
#X connect 4 3 8 0;
#X connect 4 3 23 0;
#X connect 4 3 20 0;
#X connect 4 3 24 0;
#X connect 4 4 5 0;
#X connect 4 4 7 0;
#X connect 4 5 16 0;
#X connect 4 5 17 0;
#X connect 4 6 5 0;
#X connect 4 6 7 0;
#X connect 4 7 27 0;
#X connect 4 7 28 0;
#X connect 4 7 30 0;
#X connect 4 8 5 0;
#X connect 4 8 7 0;
#X connect 5 0 6 0;
#X connect 6 0 12 0;
#X connect 7 0 6 1;
#X connect 8 0 9 0;
#X connect 9 0 26 0;
#X connect 10 0 3 0;
#X connect 11 0 3 1;
#X connect 13 0 12 0;
#X connect 13 2 12 0;
#X connect 13 3 12 0;
#X connect 14 0 1 1;
#X connect 15 0 12 0;
#X connect 16 0 18 0;
#X connect 17 0 18 1;
#X connect 18 0 12 0;
#X connect 18 0 19 0;
#X connect 19 0 12 0;
#X connect 19 2 12 0;
#X connect 20 0 21 0;
#X connect 21 0 25 0;
#X connect 22 0 12 0;
#X connect 23 0 9 1;
#X connect 24 0 21 1;
#X connect 25 0 22 1;
#X connect 25 1 22 1;
#X connect 25 2 22 1;
#X connect 25 3 22 1;
#X connect 26 0 22 0;
#X connect 26 1 22 0;
#X connect 26 2 22 0;
#X connect 26 3 22 0;
#X connect 27 0 29 0;
#X connect 28 0 29 1;
#X connect 29 0 12 0;
#X connect 30 0 29 2;
#X restore 426 47 pd redlastnum;
#N canvas 416 34 536 300 blueinst 1;
#X obj 93 99 line~;
#X obj 21 99 osc~ 440;
#X obj 21 121 *~;
#X obj 21 44 route 0 1;
#X obj 21 11 inlet;
#X obj 85 265 outlet~;
#X obj 161 24 route 0 1;
#X obj 240 115 vline~;
#X obj 212 147 *~;
#X obj 109 188 *~;
#X obj 161 116 osc~ 22;
#X msg 71 73 0.4 150;
#X msg 21 69 0 1400;
#X msg 139 63 0.2 10 0 \, 0 900 0;
#X msg 275 68 0.01 1500 0 \, 0.45 1800 0;
#X connect 0 0 2 1;
#X connect 1 0 2 0;
#X connect 2 0 9 0;
#X connect 2 0 5 0;
#X connect 3 0 12 0;
#X connect 3 1 11 0;
#X connect 4 0 3 0;
#X connect 4 0 6 0;
#X connect 6 0 13 0;
#X connect 6 1 14 0;
#X connect 7 0 8 1;
#X connect 8 0 9 1;
#X connect 9 0 5 0;
#X connect 10 0 8 0;
#X connect 11 0 0 0;
#X connect 12 0 0 0;
#X connect 13 0 7 0;
#X connect 14 0 7 0;
#X restore 28 63 pd blueinst;
#X connect 1 0 21 0;
#X connect 2 0 0 0;
#X connect 3 0 2 1;
#X connect 4 0 3 0;
#X connect 5 0 4 0;
#X connect 5 1 13 0;
#X connect 6 0 5 0;
#X connect 7 0 2 0;
#X connect 8 0 0 0;
#X connect 8 0 17 0;
#X connect 9 0 8 1;
#X connect 10 0 16 0;
#X connect 10 1 15 0;
#X connect 11 0 10 0;
#X connect 12 0 20 0;
#X connect 13 0 3 0;
#X connect 14 0 8 0;
#X connect 15 0 9 0;
#X connect 16 0 9 0;
#X connect 17 0 0 0;
#X connect 17 1 0 0;
#X connect 18 0 19 0;
#X connect 18 0 20 1;
#X connect 20 0 0 0;
#X connect 21 0 0 0;
#X restore 420 199 pd dostuff;
#N canvas 0 50 450 300 volumecontrol 0;
#X text 68 185 NOTE TO SELF: add somethingn here to deal with amplitude
;
#X obj 47 38 inlet~;
#X obj 47 75 outlet~;
#X obj 110 57 *~ 0.95;
#X connect 1 0 3 0;
#X connect 3 0 2 0;
#X restore 420 231 pd volumecontrol;
#X obj 420 295 dac~;
#N canvas 0 50 560 471 chancontrol 0;
#X obj 47 38 inlet~;
#X text 68 185 NOTE TO SELF: add somethinng here to about stereo;
#X obj 47 125 outlet~;
#X obj 117 125 outlet~;
#X obj 117 38 inlet~;
#X connect 0 0 2 0;
#X connect 4 0 3 0;
#X restore 420 263 pd chancontrol;
#X text 98 431 VARLIST:;
#X text 505 195 <-- put code here;
#X text 98 501 TODO:;
#X text 112 529 add dsp on on load;
#X text 112 459 blue yellow red green lbumpbtn rbumpbtn backbtn menubtn
lastnum etc;
#X connect 0 0 1 0;
#X connect 2 0 0 0;
#X connect 3 0 12 0;
#X connect 3 0 2 0;
#X connect 12 0 0 0;
#X connect 14 0 0 0;
#X connect 16 0 17 0;
#X connect 17 0 19 0;
#X connect 17 0 19 1;
#X connect 19 0 18 0;
#X connect 19 1 18 1;
